<svg width="36" height="36" viewBox="0 0 36 36" fill="none" xmlns="http://www.w3.org/2000/svg">
<g clip-path="url(#clip0_5_33)">
<path fill-rule="evenodd" clip-rule="evenodd" d="M35.8802 23.1702L33.4671 12.9155C32.8172 10.153 30.2709 7.31252 26.3932 7.31252H9.60697C6.76892 7.31252 3.42084 9.14092 2.53287 12.9155L0.119725 23.1702C-0.535335 25.9538 1.57761 28.6243 4.44092 28.6243C5.65766 28.6243 6.80216 27.9762 7.42755 26.9333L9.28644 23.8357C9.60422 23.3056 10.1854 22.9766 10.8034 22.9766H25.1963C25.8143 22.9766 26.3957 23.3059 26.7135 23.836L28.5721 26.933C29.1978 27.9762 30.3423 28.6243 31.5604 28.6243C34.4193 28.6243 36.5358 25.9566 35.8802 23.1702ZM13.4818 16.1991H12.2772V17.4037C12.2772 17.986 11.8051 18.4581 11.2225 18.4581C10.6402 18.4581 10.1681 17.986 10.1681 17.4037V16.1991H8.96344C8.38117 16.1991 7.90903 15.7269 7.90903 15.1447C7.90903 14.5621 8.38117 14.09 8.96344 14.09H10.1681V12.8853C10.1681 12.3031 10.6402 11.8309 11.2225 11.8309C11.8051 11.8309 12.2772 12.3031 12.2772 12.8853V14.09H13.4818C14.0641 14.09 14.5363 14.5621 14.5363 15.1447C14.5363 15.7269 14.0641 16.1991 13.4818 16.1991ZM22.5181 16.1991C21.9361 16.1991 21.4637 15.7267 21.4637 15.1447C21.4637 14.5624 21.9364 14.09 22.5181 14.09C23.1004 14.09 23.5728 14.5624 23.5728 15.1447C23.5728 15.7267 23.1004 16.1991 22.5181 16.1991ZM24.7774 18.4581C24.1954 18.4581 23.7227 17.9857 23.7227 17.4037C23.7227 16.8217 24.1954 16.349 24.7774 16.349C25.3594 16.349 25.8318 16.8217 25.8318 17.4037C25.8318 17.9857 25.3594 18.4581 24.7774 18.4581ZM24.7774 13.94C24.1954 13.94 23.7227 13.4676 23.7227 12.8853C23.7227 12.3033 24.1954 11.8309 24.7774 11.8309C25.3594 11.8309 25.8318 12.3033 25.8318 12.8853C25.8318 13.4676 25.3594 13.94 24.7774 13.94ZM27.0365 16.1991C26.4545 16.1991 25.9818 15.7267 25.9818 15.1447C25.9818 14.5624 26.4545 14.09 27.0365 14.09C27.6185 14.09 28.0909 14.5624 28.0909 15.1447C28.0909 15.7267 27.6185 16.1991 27.0365 16.1991Z" fill="#FFCC22"/>
</g>
<defs>
<clipPath id="clip0_5_33">
<rect width="36" height="36" fill="white"/>
</clipPath>
</defs>
</svg>
