<svg width="56" height="56" viewBox="0 0 56 56" fill="none" xmlns="http://www.w3.org/2000/svg">
<g clip-path="url(#clip0_6_2)">
<path d="M55.447 21.789C56.1844 21.0518 56.1844 19.8563 55.447 19.1189L52.6135 16.2854C51.9727 15.6445 50.9666 15.5495 50.2171 16.0588L44.2593 20.1081L48.2841 14.11C48.7867 13.3609 48.6893 12.3608 48.0512 11.723L41.9048 5.57656C41.3374 5.00913 40.4734 4.86223 39.7506 5.21052L38.6879 5.7222L39.1968 4.59311C39.5194 3.87752 39.3656 3.03719 38.8106 2.48209L36.8812 0.55296C36.144 -0.184279 34.9484 -0.184279 34.2111 0.55296L19.2246 15.5393L40.4607 36.7754L55.447 21.789Z" fill="#FFCC22"/>
<path d="M16.434 18.3299L12.0957 22.6683C11.7416 23.0224 11.5426 23.5026 11.5426 24.0033C11.5426 24.504 11.7415 24.9843 12.0957 25.3383L16.211 29.4536C17.0039 30.2465 17.3884 31.3407 17.2661 32.4555C17.1438 33.5697 16.5306 34.5547 15.5836 35.1584C3.49125 42.8667 2.36406 43.994 1.99374 44.3644C-0.664579 47.0226 -0.664579 51.3479 1.99374 54.0063C4.6547 56.6673 8.98021 56.662 11.6356 54.0063C12.0062 53.6359 13.1338 52.5082 20.8415 40.4164C21.4437 39.4717 22.4284 38.8599 23.543 38.7374C24.6611 38.6154 25.7552 38.9981 26.5462 39.7889L30.6615 43.9042C31.3987 44.6415 32.5944 44.6415 33.3316 43.9042L37.6701 39.5658L16.434 18.3299ZM8.81745 50.9566C7.77522 51.9989 6.0855 51.9989 5.0434 50.9566C4.00116 49.9144 4.00116 48.2247 5.0434 47.1826C6.08563 46.1404 7.77535 46.1404 8.81745 47.1826C9.85968 48.2247 9.85968 49.9144 8.81745 50.9566Z" fill="#FFCC22"/>
</g>
<defs>
<clipPath id="clip0_6_2">
<rect width="56" height="56" fill="white"/>
</clipPath>
</defs>
</svg>
